<svg width="428" height="187" viewBox="0 0 428 187" fill="none" xmlns="http://www.w3.org/2000/svg">
<path d="M180.5 92C138.312 79.4756 41.1939 137.285 -1.26421 161.864C-1.42419 161.956 -1.5465 162.086 -1.63433 162.249L-14.2034 185.525C-14.5632 186.191 -14.0807 187 -13.3235 187H472.497C473.051 187 473.499 186.575 473.497 186.022C473.237 123.539 464.016 0.5 429 0.5C385 0.5 356 25 342 34.5C333.223 40.4556 212.5 101.5 180.5 92Z" fill="#0F5816"/>
<path d="M180.7 126.383C138.47 118.392 41.2543 155.277 -1.24826 170.96C-1.41006 171.02 -1.54477 171.117 -1.65625 171.249L-13.6052 185.354C-14.1557 186.003 -13.6939 187 -12.8422 187H472.996C473.55 187 473.998 186.571 473.994 186.017C473.682 146.039 464.402 68 429.454 68C385.409 68 356.38 83.6327 342.365 89.6944C333.58 93.4945 212.733 132.445 180.7 126.383Z" fill="#197522"/>
<path d="M180.7 149.306C138.456 144.335 41.1876 167.289 -1.29204 177.036C-1.42496 177.066 -1.54289 177.122 -1.65283 177.203L-12.5394 185.194C-13.3184 185.766 -12.9139 187 -11.9477 187H472.993C473.548 187 473.998 186.565 473.989 186.01C473.587 161.039 464.225 113 429.454 113C385.409 113 356.38 122.721 342.365 126.491C333.58 128.854 212.733 153.075 180.7 149.306Z" fill="#35AD41"/>
<ellipse cx="395" cy="155.5" rx="27" ry="12.5" fill="#197522"/>
<path d="M391 120.5L401.5 114.871L401.5 126.129L391 120.5Z" fill="#CB3131"/>
<path d="M401 115C401 113.895 401.895 113 403 113C404.105 113 405 113.895 405 115V158H401V115Z" fill="#D9D9D9"/>
</svg>
