<svg width="21" height="43" viewBox="0 0 21 43" fill="none" xmlns="http://www.w3.org/2000/svg">
<path fill-rule="evenodd" clip-rule="evenodd" d="M17.6544 11.6611C15.2458 12.3332 13.8119 12.6981 12.3845 12.7107C10.9286 12.7235 9.50651 12.3698 7.09397 11.6982C7.02366 11.6786 6.96088 11.733 6.96088 11.7946V13.0317C7.02374 13.0483 7.09381 13.0666 7.17039 13.0863C7.53287 13.1797 8.04014 13.3041 8.61856 13.4285C9.7854 13.6794 11.2046 13.9216 12.3076 13.9216C13.4107 13.9216 14.8299 13.6794 15.9967 13.4285C16.5751 13.3041 17.0824 13.1797 17.4449 13.0863C17.5215 13.0666 17.5915 13.0483 17.6544 13.0317V11.6611ZM17.6544 14.0741V15.5357H18.6632V11.5284C18.6632 10.9261 18.0881 10.4924 17.5101 10.654C14.9949 11.357 13.6695 11.6905 12.3756 11.7019C11.0854 11.7133 9.79967 11.4042 7.36453 10.7263C6.66226 10.5308 5.95206 11.0543 5.95206 11.7946V27.8434H6.96088V14.0741C7.3299 14.1686 7.83399 14.2917 8.40649 14.4148C9.58555 14.6683 11.092 14.9304 12.3076 14.9304C13.5233 14.9304 15.0297 14.6683 16.2088 14.4148C16.7813 14.2917 17.2854 14.1686 17.6544 14.0741Z" fill="white"/>
<path fill-rule="evenodd" clip-rule="evenodd" d="M18.7641 16.2419H14.5271C14.3042 16.2419 14.1235 16.4226 14.1235 16.6454V37.8307C14.1235 38.0536 14.3042 38.2343 14.5271 38.2343H18.7641C18.987 38.2343 19.1676 38.0536 19.1676 37.8307V16.6454C19.1676 16.4226 18.987 16.2419 18.7641 16.2419ZM14.5271 15.2331C13.747 15.2331 13.1147 15.8654 13.1147 16.6454V37.8307C13.1147 38.6107 13.747 39.2431 14.5271 39.2431H18.7641C19.5441 39.2431 20.1765 38.6107 20.1765 37.8307V16.6454C20.1765 15.8654 19.5441 15.2331 18.7641 15.2331H14.5271Z" fill="white"/>
<path fill-rule="evenodd" clip-rule="evenodd" d="M17.7553 39.6466H7.4653C7.24244 39.6466 7.06177 39.8272 7.06177 40.0501V41.4625C7.06177 41.6853 7.24244 41.866 7.4653 41.866H17.3518C17.5746 41.866 17.7553 41.6853 17.7553 41.4625V39.6466ZM7.4653 38.6378C6.68528 38.6378 6.05295 39.2701 6.05295 40.0501V41.4625C6.05295 42.2425 6.68528 42.8748 7.4653 42.8748H17.3518C18.1318 42.8748 18.7641 42.2425 18.7641 41.4625V38.6378H7.4653Z" fill="white"/>
<path fill-rule="evenodd" clip-rule="evenodd" d="M8.27234 28.146H6.05293C5.83007 28.146 5.6494 28.3267 5.6494 28.5495V36.8219C5.6494 37.7133 6.37207 38.436 7.26352 38.436H10.6935C10.9164 38.436 11.097 38.2553 11.097 38.0325V30.9707C11.097 29.4107 9.83238 28.146 8.27234 28.146ZM6.05293 27.1372C5.27291 27.1372 4.64058 27.7695 4.64058 28.5495V36.8219C4.64058 38.2705 5.81491 39.4448 7.26352 39.4448H10.6935C11.4735 39.4448 12.1059 38.8125 12.1059 38.0325V30.9707C12.1059 28.8535 10.3895 27.1372 8.27234 27.1372H6.05293Z" fill="white"/>
<path d="M5.2459 31.9796H11.2988V33.3919H5.2459V31.9796Z" fill="white"/>
<path d="M10.0882 33.4928C10.0882 33.8828 9.77206 34.1989 9.38205 34.1989C8.99204 34.1989 8.67587 33.8828 8.67587 33.4928C8.67587 33.1028 8.99204 32.7866 9.38205 32.7866C9.77206 32.7866 10.0882 33.1028 10.0882 33.4928Z" fill="white"/>
<path d="M15.1323 20.1763C15.1323 19.7863 15.4485 19.4701 15.8385 19.4701H17.4526C17.8426 19.4701 18.1588 19.7863 18.1588 20.1763C18.1588 20.5663 17.8426 20.8825 17.4526 20.8825H15.8385C15.4485 20.8825 15.1323 20.5663 15.1323 20.1763Z" fill="white"/>
<path d="M15.2686 22.723C15.2686 22.333 15.5848 22.0168 15.9748 22.0168H16.3783C16.7683 22.0168 17.0845 22.333 17.0845 22.723C17.0845 23.113 16.7683 23.4291 16.3783 23.4291H15.9748C15.5848 23.4291 15.2686 23.113 15.2686 22.723Z" fill="white"/>
<path fill-rule="evenodd" clip-rule="evenodd" d="M1.77778 27.0348C1.30423 28.8678 1.00882 30.5071 1.00882 31.6769C1.00882 35.3003 3.89828 36.8964 5.36083 37.2387L5.13093 38.2209C3.4325 37.8234 0 35.9626 0 31.6769C0 30.375 0.3225 28.6347 0.801024 26.7824C1.28205 24.9204 1.93043 22.9093 2.60258 21.0513C3.27466 19.1936 3.97356 17.4807 4.55776 16.2149C4.84916 15.5835 5.11629 15.0541 5.34063 14.671C5.45195 14.4809 5.56006 14.3141 5.6617 14.1858C5.71226 14.1219 5.76974 14.0567 5.83329 14.0005C5.88844 13.9518 5.99071 13.8712 6.13236 13.8358L6.37704 14.8145C6.42763 14.8018 6.46179 14.7829 6.47736 14.7734C6.48603 14.7681 6.49216 14.7637 6.4957 14.761C6.49928 14.7583 6.50109 14.7567 6.50111 14.7567C6.50115 14.7566 6.49993 14.7577 6.49743 14.7602C6.49495 14.7627 6.49152 14.7662 6.48713 14.771C6.47824 14.7807 6.46672 14.7942 6.45255 14.8121C6.39311 14.8871 6.31227 15.0081 6.21118 15.1807C6.01071 15.5231 5.75924 16.0191 5.47373 16.6377C4.90408 17.8719 4.21585 19.5574 3.55124 21.3945C2.8867 23.2314 2.24883 25.2114 1.77778 27.0348Z" fill="white"/>
<path fill-rule="evenodd" clip-rule="evenodd" d="M8.22928 6.90911C8.40913 7.02994 8.57442 7.14099 8.72921 7.23173L8.97853 7.37788V11.6013H7.9697V8.58745C7.6024 8.80885 7.19157 9.03492 6.76147 9.22525C5.99815 9.56304 5.1063 9.81955 4.25502 9.67767C3.27938 9.51506 2.51317 8.68745 2.36511 7.80731C2.28779 7.34768 2.37664 6.853 2.71346 6.44172C3.04528 6.03654 3.56972 5.77032 4.25502 5.6561L4.2843 5.65122L4.31395 5.64981C6.21981 5.55906 7.385 6.34188 8.22928 6.90911ZM7.54024 7.66789C6.73163 7.13182 5.88141 6.59293 4.39209 6.65613C3.88567 6.74543 3.62314 6.92316 3.49396 7.0809C3.36734 7.2355 3.32379 7.42494 3.35996 7.63995C3.43888 8.10912 3.88327 8.59297 4.42087 8.68257C4.98193 8.77608 5.65376 8.61225 6.35323 8.30272C6.77135 8.11768 7.17528 7.89166 7.54024 7.66789Z" fill="white"/>
<path fill-rule="evenodd" clip-rule="evenodd" d="M15.2724 7.31945C15.4522 7.44028 15.6175 7.55133 15.7723 7.64207L16.0216 7.78822V12.0116H15.0128V8.99779C14.6455 9.21919 14.2347 9.44526 13.8046 9.63559C13.0412 9.97338 12.1494 10.2299 11.2981 10.088C10.3225 9.9254 9.55627 9.09779 9.4082 8.21765C9.33088 7.75801 9.41974 7.26334 9.75655 6.85206C10.0884 6.44688 10.6128 6.18066 11.2981 6.06644L11.3274 6.06156L11.357 6.06015C13.2629 5.9694 14.4281 6.75222 15.2724 7.31945ZM14.5833 8.07823C13.7747 7.54216 12.9245 7.00327 11.4352 7.06647C10.9288 7.15577 10.6662 7.3335 10.537 7.49124C10.4104 7.64584 10.3669 7.83528 10.403 8.05029C10.482 8.51946 10.9264 9.00331 11.464 9.09291C12.025 9.18642 12.6969 9.02259 13.3963 8.71306C13.8144 8.52802 14.2184 8.302 14.5833 8.07823Z" fill="white"/>
<path fill-rule="evenodd" clip-rule="evenodd" d="M17.29 2.88064C17.4698 3.00147 17.6351 3.11252 17.7899 3.20326L18.0392 3.34941V11.0969H17.0304V4.55898C16.6631 4.78038 16.2523 5.00644 15.8222 5.19677C15.0589 5.53457 14.167 5.79108 13.3157 5.6492C12.3401 5.48659 11.5739 4.65897 11.4258 3.77884C11.3485 3.3192 11.4374 2.82453 11.7742 2.41325C12.106 2.00806 12.6304 1.74185 13.3157 1.62763L13.345 1.62275L13.3747 1.62134C15.2805 1.53058 16.4457 2.31341 17.29 2.88064ZM16.6009 3.63942C15.7923 3.10335 14.9421 2.56446 13.4528 2.62766C12.9464 2.71695 12.6839 2.89468 12.5547 3.05243C12.4281 3.20703 12.3845 3.39647 12.4207 3.61148C12.4996 4.08065 12.944 4.5645 13.4816 4.6541C14.0426 4.74761 14.7145 4.58378 15.4139 4.27425C15.8321 4.08921 16.236 3.86319 16.6009 3.63942Z" fill="white"/>
<path fill-rule="evenodd" clip-rule="evenodd" d="M10.0265 1.26653C10.2063 1.38737 10.3716 1.49842 10.5264 1.58915L10.7757 1.73531V5.95872H9.7669V2.94487C9.3996 3.16627 8.98877 3.39234 8.55867 3.58267C7.79534 3.92046 6.9035 4.17697 6.05221 4.03509C5.07657 3.87249 4.31037 3.04487 4.16231 2.16473C4.08499 1.7051 4.17384 1.21042 4.51066 0.799141C4.84248 0.393958 5.36692 0.12774 6.05221 0.0135239L6.08149 0.00864369L6.11114 0.00723173C8.017 -0.0835224 9.18219 0.699306 10.0265 1.26653ZM9.33743 2.02531C8.52882 1.48924 7.67861 0.950356 6.18929 1.01355C5.68287 1.10285 5.42033 1.28058 5.29115 1.43832C5.16454 1.59293 5.12098 1.78236 5.15715 1.99738C5.23608 2.46654 5.68047 2.9504 6.21806 3.04C6.77912 3.13351 7.45096 2.96967 8.15042 2.66014C8.56855 2.47511 8.97248 2.24908 9.33743 2.02531Z" fill="white"/>
</svg>
