<svg width="30" height="29" viewBox="0 0 30 29" fill="none" xmlns="http://www.w3.org/2000/svg">
<path fill-rule="evenodd" clip-rule="evenodd" d="M29.4048 0.107004C29.9348 0.358385 30.1511 0.972611 29.888 1.47891L17.2148 25.8627C16.9441 26.4118 16.4081 27.1678 15.6233 27.7996C14.8221 28.4447 13.7082 29 12.3213 29H3.39283C2.83448 29 2.0208 28.8484 1.31591 28.3636C0.5564 27.8412 0 26.9795 0 25.7588V19.2765C0 18.6667 0.238887 17.7638 1.07312 17.1686C1.94463 16.5467 3.15898 16.4742 4.62449 16.9409C6.97266 17.6886 13.7947 19.475 17.6307 20.4594L27.9687 0.568581C28.2318 0.0622776 28.8748 -0.144378 29.4048 0.107004ZM16.6587 22.3294C12.7698 21.329 6.27952 19.6256 3.94687 18.8828C2.84097 18.5307 2.44819 18.7425 2.35543 18.8086C2.22538 18.9014 2.14284 19.0903 2.14284 19.2765V20.4707H4.99996C5.59169 20.4707 6.07138 20.9289 6.07138 21.4942C6.07138 22.0595 5.59169 22.5177 4.99996 22.5177H2.14284V23.2H4.99996C5.59169 23.2 6.07138 23.6583 6.07138 24.2236C6.07138 24.7888 5.59169 25.2471 4.99996 25.2471H2.14284V25.7588C2.14284 26.3123 2.36024 26.5594 2.56798 26.7023C2.83036 26.8828 3.17738 26.953 3.39283 26.953H12.3213C13.0773 26.953 13.7194 26.6554 14.2425 26.2343C14.7763 25.8045 15.131 25.2877 15.279 24.9848L15.2845 24.9736L16.6587 22.3294Z" fill="black"/>
</svg>
