<svg width="18" height="17" viewBox="0 0 18 17" fill="none" xmlns="http://www.w3.org/2000/svg">
<path fill-rule="evenodd" clip-rule="evenodd" d="M9.13082 8.98824L9.15049 8.96712C10.651 7.3454 10.5575 4.84264 8.93876 3.37043C7.31648 1.89502 4.77665 2.01336 3.26588 3.63475C1.75512 5.25615 1.84552 7.76661 3.4678 9.24202C5.08655 10.7142 7.61888 10.5996 9.13082 8.98824ZM9.29997 11.5878C7.00181 12.9238 4.01821 12.7009 1.97572 10.8434C-0.531442 8.56318 -0.671152 4.68338 1.66367 2.17759C3.99848 -0.328202 7.92368 -0.511092 10.4308 1.76909C12.4733 3.62667 12.9446 6.54586 11.7868 8.91893L16.4708 13.6895C17.2083 14.3602 17.2493 15.5013 16.5626 16.2383C15.8759 16.9753 14.7214 17.0291 13.984 16.3584L9.29997 11.5878Z" fill="#0F3E58" fill-opacity="0.75"/>
</svg>
